<?xml version="1.0" encoding="iso-8859-1"?>
<!-- Generator: Adobe Illustrator 26.3.1, SVG Export Plug-In . SVG Version: 6.00 Build 0)  -->
<svg version="1.1" id="Layer_1" xmlns="http://www.w3.org/2000/svg" xmlns:xlink="http://www.w3.org/1999/xlink" x="0px" y="0px"
	 viewBox="0 0 425.2 141.7" enable-background="new 0 0 425.2 141.7" xml:space="preserve">
<g id="bg">
</g>
<g id="Layer_1_00000008131944982437472060000008970201464988240015_">
	<g>
		<g>
			<path fill="#27B99A" d="M193.2,47.8c3.2-3.1,3.8-6.9,3.8-10.1c0-5.5-2.2-9-4.3-11c-2.4-2.2-6.3-4.3-12.6-4.3h-17.3v49.3h11.4
				V52.3l13.3,19.4h13.9l-15.2-20.2C189.1,50.9,191.5,49.5,193.2,47.8z M183.7,42.7c-1.9,1.9-4.7,2.1-6.8,2.1h-2.6V31.4h2.7
				c1.5,0,4.4,0.1,6.3,1.6c1,0.7,2.3,2.2,2.3,5C185.5,40.4,184.5,41.9,183.7,42.7z"/>
		</g>
		<g>
			<polygon fill="#27B99A" points="204.1,71.8 231.9,71.8 231.9,62.2 215.5,62.2 215.5,51.2 231.1,51.2 231.1,41.6 215.5,41.6 
				215.5,32.1 231.9,32.1 231.9,22.5 204.1,22.5 			"/>
		</g>
		<g>
			<path fill="#27B99A" d="M252.1,22.5l-19.9,49.3H244l3.8-9.3h18.6l3.7,9.3H282l-19.4-49.3C262.6,22.5,252.1,22.5,252.1,22.5z
				 M251.1,53.8l6.1-16.6l6.1,16.6C263.3,53.8,251.1,53.8,251.1,53.8z"/>
		</g>
		<g>
			<polygon fill="#27B99A" points="293.3,22.5 282,22.5 282,71.8 308.6,71.8 308.6,62.2 293.3,62.2 			"/>
		</g>
		<g>
			<rect x="311.6" y="22.5" fill="#27B99A" width="11.4" height="49.3"/>
		</g>
		<g>
			<polygon fill="#27B99A" points="390.7,22.5 380.8,37.8 370.9,22.5 358.3,22.5 357.5,22.5 325.5,22.5 325.5,32.1 336.2,32.1 
				336.2,71.8 347.6,71.8 347.6,32.1 358.3,32.1 358.3,23.7 375.1,48.8 375.1,71.8 386.5,71.8 386.5,48.8 404.2,22.5 			"/>
		</g>
	</g>
	<g>
		<g>
			<g>
				<path fill="#4C515A" d="M155.9,118.2l7.2-44.8h8.6l11.1,26.8L194,73.5h8.6l7.2,44.8h-10.3l-3.6-26.7l-11.2,26.7H181l-11.2-26.7
					l-3.6,26.7h-10.3V118.2z"/>
			</g>
			<g>
				<path fill="#4C515A" d="M240.4,109.8h-16.9l-3.4,8.5h-10.7l18.1-44.8h9.5l17.7,44.8H244L240.4,109.8z M237.6,101.9l-5.5-15
					l-5.6,15H237.6z"/>
			</g>
			<g>
				<path fill="#4C515A" d="M269.1,82.2v36h-10.3v-36H249v-8.7h29.8v8.7H269.1z"/>
			</g>
		</g>
		<g>
			<g>
				<path fill="#4C515A" d="M295.2,82.2v36h-10.3v-36h-9.7v-8.7H305v8.7H295.2z"/>
			</g>
			<g>
				<path fill="#4C515A" d="M332.3,82.2h-15v8.7h14.2v8.7h-14.2v9.9h15v8.7H307V73.5h25.3V82.2z"/>
			</g>
			<g>
				<path fill="#4C515A" d="M353,73.5c5.7,0,9.3,1.9,11.4,3.9c1.9,1.8,3.9,5,3.9,10c0,2.8-0.6,6.3-3.5,9.1c-1.5,1.5-3.8,2.8-6.2,3.4
					l13.8,18.3h-12.6l-12.1-17.7v17.7h-10.3V73.5H353z M347.7,93.8h2.3c1.9,0,4.4-0.2,6.2-1.9c0.7-0.7,1.7-2.1,1.7-4.4
					c0-2.6-1.2-3.9-2.1-4.6c-1.7-1.3-4.4-1.4-5.7-1.4h-2.4V93.8z"/>
			</g>
			<g>
				<path fill="#4C515A" d="M397.8,84.4c-3.4-3-6.2-3.2-7.5-3.2c-1.4,0-3.2,0.2-4.4,1.5c-0.7,0.7-1.1,1.7-1.1,2.8
					c0,1.1,0.3,1.9,1,2.5c1.1,1,2.6,1.4,5.6,2.6l3.4,1.3c1.9,0.7,4.4,1.7,6.1,3.4c2.6,2.5,3.3,5.7,3.3,8.3c0,4.6-1.6,8.7-4,11.1
					c-4,4.2-9.7,4.6-12.7,4.6c-3.2,0-6-0.5-8.9-1.9c-2.3-1.1-4.9-3.2-6.6-4.9l5.4-7.4c1.1,1.1,3,2.7,4.2,3.4
					c1.7,1.1,3.6,1.6,5.6,1.6c1.3,0,3.2-0.3,4.7-1.5c0.9-0.7,1.6-1.9,1.6-3.6c0-1.5-0.6-2.4-1.5-3.2c-1.2-1-4-2-5.2-2.5l-3.7-1.3
					c-2.1-0.7-4.5-1.7-6.2-3.6c-2.4-2.5-2.7-5.6-2.7-7.8c0-4,1.2-7.3,3.9-10.1c3.2-3.2,6.9-4.1,11.1-4.1c3.1,0,8.1,0.5,13.3,4.4
					L397.8,84.4z"/>
			</g>
		</g>
	</g>
	<g>
		<path fill="#037C66" d="M77.1,72.5c0-3.1-2.3-6.8-5.1-8.1L48,52.9c-2.8-1.4-5.1,0.1-5.1,3.2v31.6c0,3.1,2.3,6.8,5.1,8.1l24,11.5
			c2.8,1.4,5.1-0.1,5.1-3.2V72.5z"/>
	</g>
	<g>
		<path fill="#7DCBB6" d="M79.2,72.5c0-3.1,2.3-6.8,5.1-8.1l24-11.5c2.8-1.4,5.1,0.1,5.1,3.2v31.6c0,3.1-2.3,6.8-5.1,8.1l-24,11.5
			c-2.8,1.4-5.1-0.1-5.1-3.2V72.5z"/>
	</g>
	<g>
		<path fill="#27B99A" d="M83.3,33.9c-2.8-1.4-7.4-1.4-10.2,0l-25,12c-2.8,1.4-2.8,3.6,0,4.9l25,12c2.8,1.4,7.4,1.4,10.2,0l25-12
			c2.8-1.4,2.8-3.6,0-4.9L83.3,33.9z"/>
	</g>
	<polygon fill="#808285" points="35.4,99.9 34,98.1 41,94.7 42.3,96.5 	"/>
	<polygon fill="#808285" points="121.1,99.9 122.5,98.1 115.5,94.7 114.1,96.5 	"/>
	<polygon fill="#4C515A" points="121.1,99.8 78.2,119.9 35.4,99.9 25.1,104.8 25.1,104.9 78.2,129.6 131.2,104.9 131.2,104.7 	"/>
	<polygon fill="#C7C8CA" points="132.4,105.4 132.4,105.6 78.2,130.9 23.9,105.6 23.9,105.5 21,106.9 21,107.5 22.7,108.3 
		76.9,133.6 78.2,134.2 79.4,133.6 133.6,108.3 135.3,107.5 135.3,106.8 	"/>
	<g>
		<polygon fill="#4C515A" points="77.1,12.2 25.1,37.1 25.1,102.4 34,98.1 34,42.6 77.1,21.9 		"/>
		<polygon fill="#4C515A" points="79.3,12.2 79.3,21.9 122.4,42.6 122.4,98 131.2,102.3 131.2,37.1 		"/>
	</g>
	<g>
		<polygon fill="#C7C8CA" points="77.1,7.6 76.9,7.6 22.7,33.7 21,34.5 21,36.3 21,104.4 23.9,103 23.9,36.3 77.1,10.8 		"/>
		<polygon fill="#C7C8CA" points="133.6,33.7 79.4,7.6 79.3,7.6 79.3,10.8 132.4,36.3 132.4,102.9 135.3,104.3 135.3,36.3 
			135.3,34.5 		"/>
	</g>
	<rect x="77.1" y="21.7" fill="#808285" width="2.2" height="7.7"/>
</g>
</svg>
